<svg version="1.1" xmlns="http://www.w3.org/2000/svg" width="439" height="512" viewBox="0 0 439 512"><title>github</title><path d="M219.429 36.572c121.143 0 219.429 98.285 219.429 219.428 0 96.857-62.857 179.143-150 208.286-11.143 2-15.143-4.857-15.143-10.572 0-7.143 0.286-30.857 0.286-60.286 0-20.572-6.857-33.714-14.857-40.572 48.857-5.428 100.286-24 100.286-108.286 0-24-8.572-43.428-22.572-58.857 2.286-5.714 9.714-28-2.286-58.285-18.286-5.715-60.286 22.572-60.286 22.572-17.428-4.857-36.286-7.429-54.857-7.429s-37.429 2.571-54.857 7.428c0 0-42-28.285-60.285-22.572-12 30.285-4.572 52.572-2.285 58.285-14 15.428-22.572 34.857-22.572 58.857 0 84 51.143 102.857 100 108.285-6.286 5.714-12 15.428-14 29.428-12.572 5.714-44.572 15.428-63.715-18.286-12-20.857-33.715-22.572-33.715-22.572-21.428-0.286-1.428 13.428-1.428 13.428 14.285 6.572 24.285 32 24.285 32 12.857 39.143 74 26 74 26 0 18.286 0.286 35.428 0.286 40.857 0 5.714-4 12.572-15.143 10.572-87.143-29.143-150-111.428-150-208.286 0-121.143 98.285-219.429 219.429-219.429zM83.143 351.714c0.572-1.143-0.285-2.572-2-3.428-1.715-0.572-3.143-0.286-3.715 0.572-0.572 1.143 0.285 2.572 2 3.428 1.428 0.857 3.143 0.572 3.715-0.572zM92 361.428c1.143-0.857 0.857-2.857-0.572-4.572-1.428-1.428-3.428-2-4.572-0.857-1.143 0.857-0.857 2.857 0.572 4.572 1.428 1.428 3.428 2 4.572 0.857zM100.572 374.286c1.428-1.143 1.428-3.428 0-5.428-1.143-2-3.428-2.857-4.857-1.714-1.428 0.857-1.428 3.143 0 5.143s3.715 2.857 4.857 2zM112.572 386.286c1.143-1.143 0.572-3.714-1.143-5.428-2-2-4.572-2.286-5.715-0.857-1.428 1.143-0.857 3.714 1.143 5.428 2 2 4.572 2.286 5.715 0.857zM128.857 393.428c0.571-1.714-1.143-3.714-3.715-4.572-2.285-0.572-4.857 0.286-5.428 2s1.143 3.714 3.715 4.286c2.285 0.857 4.857 0 5.428-1.714zM146.857 394.857c0-2-2.286-3.428-4.857-3.143-2.571 0-4.572 1.428-4.572 3.143 0 2 2 3.428 4.857 3.143 2.571 0 4.571-1.428 4.571-3.143zM163.429 392c-0.286-1.714-2.571-2.857-5.143-2.572-2.571 0.572-4.286 2.286-4 4.286 0.286 1.714 2.571 2.857 5.143 2.286s4.286-2.286 4-4z"></path></svg>